HIERARCHY
ROOT Hips
{
	OFFSET 0.00000 0.00000 0.00000
	CHANNELS 6 Xposition Yposition Zposition Zrotation Yrotation Xrotation 
	JOINT LHipJoint
	{
		OFFSET 0 0 0
		CHANNELS 3 Zrotation Yrotation Xrotation
		JOINT LeftUpLeg
		{
			OFFSET 1.62964 -1.40469 0.78906
			CHANNELS 3 Zrotation Yrotation Xrotation
			JOINT LeftLeg
			{
				OFFSET 2.29640 -6.30932 0.00000
				CHANNELS 3 Zrotation Yrotation Xrotation
				JOINT LeftFoot
				{
					OFFSET 2.29451 -6.30412 0.00000
					CHANNELS 3 Zrotation Yrotation Xrotation
					JOINT LeftToeBase
					{
						OFFSET 0.03611 -0.09921 1.56387
						CHANNELS 3 Zrotation Yrotation Xrotation
						End Site
						{
							OFFSET 0.00000 -0.00000 0.80291
						}
					}
				}
			}
		}
	}
	JOINT RHipJoint
	{
		OFFSET 0 0 0
		CHANNELS 3 Zrotation Yrotation Xrotation
		JOINT RightUpLeg
		{
			OFFSET -1.73712 -1.40469 0.78906
			CHANNELS 3 Zrotation Yrotation Xrotation
			JOINT RightLeg
			{
				OFFSET -2.28137 -6.26801 0.00000
				CHANNELS 3 Zrotation Yrotation Xrotation
				JOINT RightFoot
				{
					OFFSET -2.28681 -6.28298 0.00000
					CHANNELS 3 Zrotation Yrotation Xrotation
					JOINT RightToeBase
					{
						OFFSET -0.15927 -0.43759 1.61103
						CHANNELS 3 Zrotation Yrotation Xrotation
						End Site
						{
							OFFSET -0.00000 -0.00000 0.84630
						}
					}
				}
			}
		}
	}
	JOINT LowerBack
	{
		OFFSET 0 0 0
		CHANNELS 3 Zrotation Yrotation Xrotation
		JOINT Spine
		{
			OFFSET -0.04227 2.04338 -0.00225
			CHANNELS 3 Zrotation Yrotation Xrotation
			JOINT Spine1
			{
				OFFSET -0.02148 2.04482 -0.04273
				CHANNELS 3 Zrotation Yrotation Xrotation
				JOINT Neck
				{
					OFFSET 0 0 0
					CHANNELS 3 Zrotation Yrotation Xrotation
					JOINT Neck1
					{
						OFFSET 0.09180 1.44629 0.19359
						CHANNELS 3 Zrotation Yrotation Xrotation
						JOINT Head
						{
							OFFSET 0.00887 1.40645 0.14750
							CHANNELS 3 Zrotation Yrotation Xrotation
							End Site
							{
								OFFSET -0.00669 1.50671 0.03707
							}
						}
					}
				}
				JOINT LeftShoulder
				{
					OFFSET 0 0 0
					CHANNELS 3 Zrotation Yrotation Xrotation
					JOINT LeftArm
					{
						OFFSET 2.17674 1.86763 -0.06520
						CHANNELS 3 Zrotation Yrotation Xrotation
						JOINT LeftForeArm
						{
							OFFSET 4.65776 -0.00000 0.00000
							CHANNELS 3 Zrotation Yrotation Xrotation
							JOINT LeftHand
							{
								OFFSET 3.55539 -0.00000 0.00000
								CHANNELS 3 Zrotation Yrotation Xrotation
								JOINT LeftFingerBase
								{
									OFFSET 0 0 0
									CHANNELS 3 Zrotation Yrotation Xrotation
									JOINT LeftHandIndex1
									{
										OFFSET 0.70726 -0.00000 0.00000
										CHANNELS 3 Zrotation Yrotation Xrotation
										End Site
										{
											OFFSET 0.57022 -0.00000 0.00000
										}
									}
								}
								JOINT LThumb
								{
									OFFSET 0 0 0
									CHANNELS 3 Zrotation Yrotation Xrotation
									End Site
									{
										OFFSET 0.57892 -0.00000 0.57892
									}
								}
							}
						}
					}
				}
				JOINT RightShoulder
				{
					OFFSET 0 0 0
					CHANNELS 3 Zrotation Yrotation Xrotation
					JOINT RightArm
					{
						OFFSET -2.80694 1.55459 -0.32496
						CHANNELS 3 Zrotation Yrotation Xrotation
						JOINT RightForeArm
						{
							OFFSET -4.71925 -0.00000 -0.00000
							CHANNELS 3 Zrotation Yrotation Xrotation
							JOINT RightHand
							{
								OFFSET -3.56990 -0.00000 0.00000
								CHANNELS 3 Zrotation Yrotation Xrotation
								JOINT RightFingerBase
								{
									OFFSET 0 0 0
									CHANNELS 3 Zrotation Yrotation Xrotation
									JOINT RightHandIndex1
									{
										OFFSET -0.50776 -0.00000 0.00000
										CHANNELS 3 Zrotation Yrotation Xrotation
										End Site
										{
											OFFSET -0.40937 -0.00000 0.00000
										}
									}
								}
								JOINT RThumb
								{
									OFFSET 0 0 0
									CHANNELS 3 Zrotation Yrotation Xrotation
									End Site
									{
										OFFSET -0.41562 -0.00000 0.41562
									}
								}
							}
						}
					}
				}
			}
		}
	}
}
MOTION
Frames: 11
Frame Time: 0.181818
0.00 0.00 0.00 0 0 0 0 0 0 -21 0 0 0 0 0 0 0 0 0 0 0 0 0 0 21 0 0 0 0 0 0 0 0 0 0 0 0 0 0 0 0 0 0 0 0 0 0 -16 0 0 21 0 0 11 0 0 0 -8 0 0 0 0 0 0 0 0 0 0 0 0 0 0 0 0 0 0 0 0 8 0 0 0 0 0 0 0 0 0 0 0 0 0 0 0 0 0
0.00 0.00 0.00 179.2240 -0.8574 -147.6450 0.0000 0.0000 0.0000 -11.8586 -23.3247 -34.6427 1.5264 7.8008 22.1106 0.6169 -0.0893 -14.8125 4.8456 -13.2078 -40.1514 0.0000 0.0000 0.0000 15.0549 20.1465 -31.9372 -1.0332 -6.4652 18.1403 -1.8524 1.8309 -25.2375 -2.6094 10.0341 -29.0872 -6.4540 -1.7963 -23.8337 -0.5999 -1.3664 -3.1576 2.5437 -1.1893 9.9087 -3.9372 1.8637 -6.3483 29.4602 3.4859 10.8179 10.4966 4.4223 3.6430 -0.0000 -0.0000 0.0000 -83.7036 2.5740 21.1398 13.5556 -22.0958 -2.6586 -0.0000 -0.0000 4.3397 21.6600 -11.5437 -4.5440 -7.1250 0.0000 -0.0000 -3.8410 17.6022 2.5053 -0.0000 -0.0000 0.0000 90.4626 -5.3827 16.7045 -23.4257 34.5510 -7.3783 0.0000 -0.0000 -5.3922 -11.0648 -50.1461 8.5377 7.1250 -0.0000 -0.0000 57.3051 -74.2822 -42.7636
0.00 0.00 0.00 178.7860 -2.5091 -145.7840 0.0000 0.0000 0.0000 -8.5267 -25.8482 -47.4254 4.4614 12.7503 38.4408 0.9660 -3.9772 -17.6674 4.5309 -12.8352 -38.7548 0.0000 0.0000 0.0000 13.1836 20.1295 -44.5409 -3.7095 -11.7635 34.9003 -2.9443 4.5953 -31.4575 -2.1517 9.1752 -26.3450 -6.6455 -1.7620 -20.2970 -0.9196 -1.4205 -3.1923 2.3683 -1.1210 7.9838 -0.2575 7.9614 -6.5892 27.8604 4.9556 10.0185 9.0654 2.5699 3.3398 -0.0000 -0.0000 0.0000 -82.7114 2.7631 23.1761 15.3982 -24.6980 -3.3906 -0.0000 -0.0000 2.6992 21.5404 -11.5506 -4.5191 -7.1250 0.0000 -0.0000 -3.9249 17.6055 2.5600 -0.0000 -0.0000 0.0000 89.4512 -5.0934 22.2012 -27.1374 38.3099 -9.5842 0.0000 -0.0000 -7.4715 -10.1794 -55.4247 8.4099 7.1250 -0.0000 -0.0000 76.7539 -75.5668 -61.8552
0.00 0.00 0.00 178.1780 -5.2222 -145.8690 0.0000 0.0000 0.0000 -6.8848 -26.3164 -58.6999 9.0106 16.8145 56.1266 1.0182 -10.4974 -18.3783 2.9038 -10.5377 -30.7362 0.0000 0.0000 0.0000 12.4647 18.9924 -54.1334 -7.8183 -15.9840 51.9056 -4.4053 5.0924 -38.8007 -2.5334 9.8984 -28.6484 -6.2895 -1.1632 -17.1791 -1.6170 -0.6447 -2.1892 1.6600 -0.6418 7.3138 6.4583 10.5493 -5.6228 23.2538 8.3439 10.7292 6.4964 4.3879 3.4969 -0.0000 -0.0000 0.0000 -81.7821 0.6406 25.0323 16.5203 -26.2210 -3.8730 -0.0000 -0.0000 1.8018 22.2485 -12.3934 -5.0176 -7.1250 0.0000 -0.0000 -3.4633 16.6397 2.3308 -0.0000 -0.0000 0.0000 88.4916 -4.1716 27.3214 -31.9441 42.5025 -12.7030 0.0000 -0.0000 -7.8893 -13.0287 -53.3235 10.5136 7.1250 -0.0000 -0.0000 67.6593 -76.2153 -54.0060
0.00 0.00 0.00 177.7520 -10.2442 -146.6570 0.0000 0.0000 0.0000 -3.9707 -27.8479 -67.9864 14.0173 19.1193 72.2573 0.3581 -19.0460 -16.3293 0.7081 -5.3781 -14.9902 0.0000 0.0000 0.0000 13.7983 15.8166 -63.0841 -13.2920 -18.8851 70.0300 -5.4299 3.1265 -43.7084 -2.9891 10.6773 -31.1992 -5.9160 -0.2662 -14.3129 -1.8542 0.4518 -1.4730 1.4525 -0.0218 6.4306 14.2579 13.1523 -2.4367 16.4138 12.9628 9.9147 3.2990 6.6219 3.3500 0.0000 -0.0000 0.0000 -83.5868 -1.1229 22.0355 17.2574 -27.1958 -4.2043 -0.0000 -0.0000 1.2281 24.8411 -13.5191 -6.1765 -7.1250 0.0000 -0.0000 -1.7380 15.1451 1.2241 0.0000 -0.0000 0.0000 87.6680 -1.5837 30.6824 -34.1839 44.2205 -14.2412 0.0000 -0.0000 -4.7903 -19.0200 -50.9364 14.9843 7.1250 -0.0000 -0.0000 54.8793 -77.7564 -44.1122
0.00 0.00 0.00 176.7230 -23.6052 -149.3360 0.0000 0.0000 0.0000 -1.9723 -32.6375 -67.3642 15.7622 19.5639 77.5224 -2.4353 -28.5913 -1.0859 6.0321 14.4594 45.1106 0.0000 0.0000 0.0000 18.3660 10.9632 -62.6091 -16.4633 -19.6974 79.6090 -6.0052 -4.3697 -48.0370 -3.7992 11.8883 -35.3380 -6.7179 3.0029 -12.5096 -2.8801 4.8704 -1.4609 1.5330 2.1966 5.1514 20.8892 15.4991 3.2002 4.2946 19.8043 4.7083 -1.3581 9.8123 2.7473 -0.0000 0.0000 0.0000 -84.3053 1.3943 25.0811 19.2893 -29.7766 -5.1737 -0.0000 0.0000 -2.1419 28.6193 -15.3376 -8.2127 -7.1250 0.0000 -0.0000 0.6625 12.6292 -0.5016 -0.0000 0.0000 0.0000 87.9927 3.8271 38.5367 -32.9460 43.2885 -13.3850 0.0000 0.0000 1.5574 -22.1489 -52.1274 17.8132 7.1250 -0.0000 -0.0000 58.8823 -79.5180 -49.3822
0.00 0.00 0.00 175.8860 -39.1037 -149.1450 0.0000 0.0000 0.0000 -2.2627 -35.6651 -58.7349 10.7214 17.7960 61.8733 -0.8628 -17.7134 14.3779 7.8643 16.0185 52.0725 0.0000 0.0000 0.0000 24.2697 1.3145 -54.5429 -10.9277 -17.8995 62.5464 -3.0156 -11.0115 -38.0210 -4.0600 12.2399 -36.5859 -6.4452 4.3332 -15.2249 -2.6202 6.6833 -2.6852 2.1002 3.0830 5.2080 15.1543 15.8213 1.6923 3.1080 20.5993 3.3044 -0.9029 10.2765 2.0325 0.0000 0.0000 0.0000 -81.5610 2.6923 33.8498 22.1537 -33.1503 -6.6697 -0.0000 0.0000 -3.6093 27.8603 -16.3151 -8.4461 -7.1250 0.0000 -0.0000 0.0574 11.6610 -0.0446 0.0000 0.0000 0.0000 84.0486 0.8457 41.5887 -35.0131 44.8215 -14.8226 0.0000 -0.0000 -8.3288 -29.7316 -46.7005 22.5703 7.1250 -0.0000 -0.0000 26.4262 -79.7159 -21.4866
0.00 0.00 0.00 176.1320 -49.4347 -149.0170 0.0000 0.0000 0.0000 -2.4591 -34.4865 -52.8143 6.7836 15.1469 48.0510 1.1446 -8.0462 24.6135 4.7117 13.0516 39.5618 0.0000 0.0000 0.0000 26.9923 -3.2707 -48.9698 -6.9648 -15.3022 48.7412 -0.1550 -15.9118 -24.0349 -5.2403 13.6494 -41.8507 -6.1537 4.3361 -18.5765 -1.9849 6.8238 -2.8872 2.9241 3.0735 6.7503 10.8126 15.4506 0.1625 3.7718 20.0912 2.9457 -0.1057 10.0515 1.5797 -0.0000 0.0000 0.0000 -80.8474 1.1833 37.3496 22.3730 -33.3960 -6.7900 -0.0000 0.0000 -3.9621 28.6541 -16.6711 -8.9093 -7.1250 0.0000 -0.0000 0.5437 11.1378 -0.4285 -0.0000 0.0000 0.0000 83.2816 -1.5719 37.3107 -33.9128 44.0200 -14.0524 0.0000 -0.0000 -7.0605 -21.7499 -48.2326 16.5711 7.1250 -0.0000 -0.0000 41.8988 -77.4423 -32.7713
0.00 0.00 0.00 175.3650 -59.9502 -147.4730 0.0000 0.0000 0.0000 -4.7893 -31.1276 -46.9109 2.9055 10.5404 30.7451 4.8609 5.5837 40.7986 0.6228 5.0502 14.0517 0.0000 0.0000 0.0000 26.5830 -2.6924 -42.4408 -3.6848 -11.7288 34.7791 2.1414 -25.0263 -6.4312 -4.4966 12.7934 -38.6001 -6.0863 3.4608 -23.0065 -1.4296 5.8984 -2.8780 3.6242 2.4803 9.1596 7.0675 15.1421 -0.6261 4.3680 19.7865 2.5176 0.5316 9.9072 1.1059 0.0000 -0.0000 0.0000 -80.8737 0.0131 38.5934 22.9003 -33.9797 -7.0825 -0.0000 0.0000 -4.7025 29.7796 -16.1935 -9.0671 -7.1250 0.0000 -0.0000 1.3393 11.4839 -1.0461 0.0000 -0.0000 0.0000 83.1553 -4.6661 33.8294 -33.4151 43.6466 -13.7077 0.0000 -0.0000 -6.0722 -19.4119 -49.6351 15.0293 7.1250 -0.0000 -0.0000 49.2978 -77.2915 -38.8558
0.00 0.00 0.00 165.0560 -78.9574 -135.3140 0.0000 0.0000 0.0000 -9.8514 -26.9508 -42.2298 1.1491 6.8065 19.1433 2.2809 5.3364 27.4121 4.1947 -12.4151 -37.2166 0.0000 0.0000 0.0000 19.1304 9.2693 -30.7333 -0.8840 -5.9934 16.7652 2.3039 -31.9953 8.6658 -0.4750 4.4201 -12.2617 -4.3014 1.3937 -27.5714 -1.1061 2.7528 -4.3759 2.1703 0.9671 10.2128 2.9597 9.7679 -2.1636 -0.8853 12.9304 -2.9882 -0.6649 6.4233 -0.3178 0.0000 0.0000 0.0000 -80.3066 0.9860 41.1286 24.7525 -35.9499 -8.1441 -0.0000 0.0000 -8.1308 28.5631 -18.3895 -9.7449 -7.1250 0.0000 -0.0000 0.2885 9.2472 -0.2384 0.0000 0.0000 0.0000 83.1218 -12.3963 30.3693 -34.4835 44.4398 -14.4505 0.0000 -0.0000 -9.6406 -20.5010 -49.3463 15.8369 7.1250 -0.0000 -0.0000 47.2767 -77.5808 -37.3929
0.00 0.00 0.00 4.3459 -15.0573 25.3933 0.0000 0.0000 0.0000 -18.8729 -12.7943 -31.4007 1.6862 8.1794 23.2603 0.5878 6.2468 13.7039 2.9450 -10.6056 -30.9608 0.0000 0.0000 0.0000 9.2493 19.5367 -30.6992 -1.6390 -8.0698 22.9262 -0.0006 0.4081 0.7710 -3.6195 11.6361 -34.4564 -5.8443 -3.2485 -28.0386 -1.0163 -2.4552 -5.1826 1.3367 -1.3447 9.8702 -2.3873 3.0321 0.1094 2.4763 4.1215 -5.3213 1.1117 2.0527 -1.7875 -0.0000 -0.0000 0.0000 -69.0312 3.1537 35.0719 20.9438 -31.7626 -6.0203 -0.0000 0.0000 -2.4327 31.3571 -13.1143 -7.8720 -7.1250 0.0000 -0.0000 2.7429 14.7321 -1.9575 -0.0000 -0.0000 0.0000 74.4344 -11.8728 30.7056 -31.2197 41.9162 -12.2163 0.0000 -0.0000 -6.4445 -9.2970 -51.0302 7.2533 7.1250 -0.0000 -0.0000 61.3349 -74.0051 -45.9442
